<?xml version="1.0" encoding="UTF-8" standalone="no"?>
<!-- Created with Inkscape (http://www.inkscape.org/) -->

<svg
   xmlns:dc="http://purl.org/dc/elements/1.1/"
   xmlns:cc="http://creativecommons.org/ns#"
   xmlns:rdf="http://www.w3.org/1999/02/22-rdf-syntax-ns#"
   xmlns:svg="http://www.w3.org/2000/svg"
   xmlns="http://www.w3.org/2000/svg"
   xmlns:sodipodi="http://sodipodi.sourceforge.net/DTD/sodipodi-0.dtd"
   xmlns:inkscape="http://www.inkscape.org/namespaces/inkscape"
   width="210mm"
   height="297mm"
   viewBox="0 0 210 297"
   version="1.1"
   id="svg8"
   inkscape:version="0.92.0 r15299"
   sodipodi:docname="+SVG.svg">
  <defs
     id="defs2" />
  <sodipodi:namedview
     id="base"
     pagecolor="#ffffff"
     bordercolor="#666666"
     borderopacity="1.0"
     inkscape:pageopacity="0.0"
     inkscape:pageshadow="2"
     inkscape:zoom="0.7"
     inkscape:cx="200.70605"
     inkscape:cy="774.47738"
     inkscape:document-units="mm"
     inkscape:current-layer="layer1"
     showgrid="false"
     inkscape:window-width="1366"
     inkscape:window-height="705"
     inkscape:window-x="-4"
     inkscape:window-y="-4"
     inkscape:window-maximized="1" />
  <metadata
     id="metadata5">
    <rdf:RDF>
      <cc:Work
         rdf:about="">
        <dc:format>image/svg+xml</dc:format>
        <dc:type
           rdf:resource="http://purl.org/dc/dcmitype/StillImage" />
        <dc:title></dc:title>
      </cc:Work>
    </rdf:RDF>
  </metadata>
  <g
     inkscape:label="Capa 1"
     inkscape:groupmode="layer"
     id="layer1">
    <path
       style="fill:#215891;fill-opacity:1;stroke:#e1bb1e;stroke-width:0.565;stroke-miterlimit:4;stroke-dasharray:none;stroke-opacity:1"
       d="m 62.043137,158.13483 -1.027181,-0.24115 -1.572618,-0.83819 -1.572618,-0.8382 -0.913342,-1.06703 -0.913342,-1.06704 -0.720192,-1.46507 -0.720192,-1.46507 V 98.897877 46.642667 l 0.565684,-1.190625 0.565685,-1.190625 0.80833,-1.101415 0.80833,-1.101415 1.161468,-0.79911 1.161467,-0.799111 1.637784,-0.551729 1.637784,-0.55173 27.047567,0.071 27.047559,0.07101 1.7729,0.839892 1.77289,0.839892 1.13752,1.148009 1.13752,1.14801 9.26042,10.155846 9.26042,10.155845 0.59576,0.806704 0.59576,0.806704 0.52872,1.413119 0.52872,1.413121 2e-5,8.787468 3e-5,8.78747 h -3.30721 -3.30721 l -1.1e-4,-6.151562 -1.1e-4,-6.151562 -11.17864,-0.0011 -11.17865,-0.0011 -0.84552,-0.515546 -0.84552,-0.515546 -0.47739,-0.728226 -0.47739,-0.728088 -0.0761,-12.38128 -0.076,-12.38128 H 87.44071 63.015297 l -0.702788,0.651323 -0.702789,0.651322 -0.261888,0.688819 -0.261888,0.688818 v 50.015178 50.015183 l 0.432552,0.91154 0.432553,0.91154 0.744933,0.38522 0.744933,0.38522 h 22.707366 22.707369 l 2.11045,2.14417 2.11046,2.14419 1.53509,1.29541 1.53509,1.2954 -26.538206,-0.0266 -26.538216,-0.0266 z M 134.11094,65.940904 v -0.148635 l -6.92307,-7.590427 -6.92306,-7.590425 -0.35298,-0.387426 -0.35298,-0.387425 v 8.126486 8.126489 h 7.27604 7.27605 z m 2.38125,92.304476 -0.92605,-0.0991 -2.11666,-0.41862 -2.11667,-0.41862 -2.24896,-0.79288 -2.24896,-0.79289 -1.32291,-0.66404 -1.32292,-0.66404 -2.18289,-1.41675 -2.18289,-1.41676 -2.29083,-2.18869 -2.29082,-2.1887 -1.49628,-2.00697 -1.49626,-2.00696 -1.23127,-2.38395 -1.23126,-2.38395 -0.78525,-2.35596 -0.78525,-2.35596 -0.44431,-2.38125 -0.44431,-2.38125 0.13167,-4.36562 0.13168,-4.36563 0.68165,-2.54174 0.68165,-2.54174 1.06327,-2.45151 1.06328,-2.45151 1.77595,-2.66768 1.77594,-2.66768 2.16274,-2.16273 2.16274,-2.16274 1.95407,-1.379503 1.95406,-1.3795 2.32939,-1.17593 2.32939,-1.17594 2.30082,-0.76125 2.30082,-0.76126 2.49402,-0.419541 2.49402,-0.41954 2.79765,0.001 2.79764,0.001 2.50628,0.40645 2.50627,0.406451 2.38852,0.80002 2.38852,0.80003 2.05314,1.02739 2.05314,1.02741 2.0479,1.39824 2.0479,1.398243 2.38661,2.38613 2.3866,2.38612 1.48698,2.24893 1.48698,2.24892 0.78972,1.5875 0.78972,1.5875 0.71499,1.98437 0.71499,1.98438 0.48539,2.38125 0.48539,2.38125 0.17483,2.26094 0.17482,2.26093 -0.29623,2.76615 -0.29623,2.76615 -0.65971,2.51104 -0.65972,2.51104 -1.02732,2.32802 -1.02732,2.32802 -1.72846,2.59636 -1.72846,2.59635 -1.92991,1.96459 -1.92991,1.96459 -1.5875,1.20693 -1.5875,1.20692 -1.81339,1.08762 -1.81339,1.08762 -1.90556,0.79328 -1.90555,0.79329 -2.23418,0.6472 -2.23418,0.64721 -2.38125,0.29182 -2.38125,0.29181 -2.11667,-0.0416 -2.11666,-0.0416 -0.92604,-0.0991 z m 7.40833,-7.7718 1.71979,-0.27862 2.48325,-0.82301 2.48325,-0.82301 2.20748,-1.34376 2.20749,-1.34376 1.48928,-1.29659 1.48928,-1.29658 1.60014,-2.01071 1.60014,-2.01071 1.28147,-2.64583 1.28148,-2.64583 0.52625,-2.08009 0.52626,-2.0801 0.16958,-2.41782 0.16958,-2.41783 -0.31188,-2.38125 -0.31188,-2.38125 -0.87846,-2.58299 -0.87845,-2.58298 -1.29109,-2.1464 -1.29109,-2.1464 -1.69,-1.83157 -1.69001,-1.83156 -1.55293,-1.19495 -1.55292,-1.19495 -2.18103,-1.15782 -2.18102,-1.15782 -2.38125,-0.70856 -2.38125,-0.70855 -3.59559,-0.13372 -3.59558,-0.13373 -2.22109,0.45006 -2.2211,0.45005 -1.98853,0.76811 -1.98853,0.7681 -1.68017,0.99542 -1.68018,0.99542 -1.68879,1.39299 -1.6888,1.39299 -1.60387,1.9161 -1.60388,1.9161 -1.43729,2.91041 -1.43728,2.91042 -0.51764,2.24896 -0.51763,2.24896 -0.1759,1.99689 -0.1759,1.9969 0.29674,2.4405 0.29674,2.44051 0.68645,2.17718 0.68645,2.17718 0.79887,1.5875 0.79888,1.5875 1.07215,1.58051 1.07215,1.5805 1.79289,1.7929 1.7929,1.7929 2.19197,1.42619 2.19197,1.4262 1.5875,0.66491 1.5875,0.66491 1.54275,0.44746 1.54275,0.44747 1.23538,0.20847 1.23537,0.20847 2.51355,0.0291 2.51354,0.0291 z m -4.99654,-8.97615 -0.8955,-0.21395 -0.95658,-0.95592 -0.95659,-0.95593 -0.0827,-4.74189 -0.0827,-4.74189 -4.59524,-0.083 -4.59525,-0.083 -0.74605,-0.55349 -0.74606,-0.5535 -0.59531,-0.87469 -0.59531,-0.8747 v -1.04536 -1.04537 l 0.4295,-0.90509 0.42949,-0.90509 0.82728,-0.5901 0.82727,-0.59011 4.63021,-0.13229 4.63021,-0.13229 0.13229,-4.63021 0.13229,-4.63021 0.5919,-0.8298 0.5919,-0.8298 1.0671,-0.42697 1.0671,-0.42697 h 0.57257 0.57257 l 1.13189,0.54794 1.13189,0.54794 0.60529,0.97342 0.60529,0.97341 0.0884,4.43177 0.0885,4.43177 4.27717,0.004 4.27718,0.004 1.03079,0.59096 1.03079,0.59096 0.49056,0.92191 0.49057,0.92191 v 1.06659 1.06659 l -0.4826,0.92192 -0.4826,0.92191 -1.16096,0.59531 -1.16097,0.59531 h -4.15497 -4.15496 l -0.0885,4.43178 -0.0884,4.43177 -0.52917,0.87817 -0.52916,0.87817 -0.79375,0.48235 -0.79375,0.48235 -0.79375,0.13633 -0.79375,0.13634 z m -64.495449,-6.59673 -0.832617,-0.5077 -0.323577,-0.98045 -0.323575,-0.98044 0.302667,-1.01022 0.302668,-1.01021 0.690771,-0.54336 0.690772,-0.54336 h 12.486292 12.486293 l 0.322605,2.46581 0.3226,2.46581 0.15087,0.5769 0.15086,0.57689 -12.797005,-0.001 -12.797004,-0.001 -0.83262,-0.5077 z m 0.568037,-17.46983 -0.529167,-0.21888 -0.617,-0.66438 -0.617003,-0.66439 -0.124497,-1.01819 -0.1245,-1.0182 0.548854,-0.87581 0.548857,-0.87582 0.911752,-0.38096 0.911749,-0.38095 h 13.237664 13.237663 v 0.0682 0.0682 l -0.76112,2.2469 -0.76112,2.2469 -0.18594,0.8599 -0.18595,0.85989 -12.480537,-0.0168 -12.480538,-0.0168 -0.529167,-0.21888 z m 0.141454,-17.820323 -0.916879,-0.3158 -0.627248,-0.92604 -0.627245,-0.92604 0.138737,-1.05818 0.138737,-1.05817 0.938482,-0.86006 0.938483,-0.86005 20.442945,0.005 20.442946,0.005 -1.19063,0.96126 -1.19062,0.96127 -2.1641,2.20856 -2.16412,2.20856 -16.621305,-0.0149 -16.621304,-0.0149 -0.916879,-0.3158 z M 74.25229,81.550364 73.528011,81.157376 73.12781,80.383473 72.72761,79.609569 v -0.687737 -0.687736 l 0.395364,-0.764551 0.395364,-0.764548 0.589547,-0.412938 0.58955,-0.412935 h 13.166121 13.166124 l 0.82393,0.736187 0.82394,0.736188 0.12078,1.182041 0.12078,1.182042 -0.54379,0.866492 -0.54379,0.866489 -0.67856,0.25799 -0.67856,0.257987 L 87.725489,81.95396 74.976568,81.94338 74.25229,81.550392 Z"
       id="path4498"
       inkscape:connector-curvature="0" />
  </g>
</svg>
