<?xml version="1.0" encoding="UTF-8" standalone="no"?>
<!-- Created with Inkscape (http://www.inkscape.org/) -->

<svg
   xmlns:dc="http://purl.org/dc/elements/1.1/"
   xmlns:cc="http://creativecommons.org/ns#"
   xmlns:rdf="http://www.w3.org/1999/02/22-rdf-syntax-ns#"
   xmlns:svg="http://www.w3.org/2000/svg"
   xmlns="http://www.w3.org/2000/svg"
   xmlns:sodipodi="http://sodipodi.sourceforge.net/DTD/sodipodi-0.dtd"
   xmlns:inkscape="http://www.inkscape.org/namespaces/inkscape"
   width="210mm"
   height="297mm"
   viewBox="0 0 210 297"
   version="1.1"
   id="svg8"
   inkscape:version="0.92.0 r15299"
   sodipodi:docname="admin.svg">
  <defs
     id="defs2" />
  <sodipodi:namedview
     id="base"
     pagecolor="#ffffff"
     bordercolor="#666666"
     borderopacity="1.0"
     inkscape:pageopacity="0.0"
     inkscape:pageshadow="2"
     inkscape:zoom="0.98994949"
     inkscape:cx="433.19063"
     inkscape:cy="590.60238"
     inkscape:document-units="mm"
     inkscape:current-layer="layer1"
     showgrid="false"
     inkscape:window-width="1366"
     inkscape:window-height="705"
     inkscape:window-x="-4"
     inkscape:window-y="-4"
     inkscape:window-maximized="1"
     showguides="false" />
  <metadata
     id="metadata5">
    <rdf:RDF>
      <cc:Work
         rdf:about="">
        <dc:format>image/svg+xml</dc:format>
        <dc:type
           rdf:resource="http://purl.org/dc/dcmitype/StillImage" />
        <dc:title />
      </cc:Work>
    </rdf:RDF>
  </metadata>
  <g
     inkscape:label="Capa 1"
     inkscape:groupmode="layer"
     id="layer1">
    <path
       style="fill:#f2cf3d;fill-opacity:1;stroke:#e1bb1e;stroke-width:0.565;stroke-miterlimit:4;stroke-dasharray:none;stroke-opacity:1"
       d="m 117.08112,208.45016 c -1.30421,-0.41706 -1.98437,-1.29755 -1.98437,-2.56885 0,-0.39305 1.48374,-5.78845 3.29721,-11.98979 l 3.2972,-11.27516 15.81899,-15.67021 15.81896,-15.67022 9.63985,9.63393 9.63984,9.63392 -15.69368,15.56129 c -11.49153,11.39461 -15.95007,15.65256 -16.65131,15.90216 -0.95256,0.33906 -21.49931,6.36466 -22.25665,6.52704 -0.21828,0.0468 -0.635,0.009 -0.92604,-0.0841 z m 14.24546,-9.34656 c 3.07909,-0.9002 5.64973,-1.67589 5.71255,-1.72376 0.0628,-0.0479 -0.2571,-0.4722 -0.71091,-0.94296 -0.81214,-0.84246 -0.82851,-0.91214 -1.04026,-4.42781 l -0.21513,-3.57187 -3.69368,-0.33455 c -3.3889,-0.30694 -3.75307,-0.39145 -4.41352,-1.02419 l -0.71983,-0.68964 -0.66404,2.21481 c -0.36521,1.21815 -1.14922,3.87569 -1.74224,5.90565 l -1.07821,3.69083 1.25102,1.27011 c 0.68805,0.69855 1.35561,1.2701 1.48346,1.2701 0.12785,0 2.75171,-0.73653 5.83079,-1.63672 z m -34.618428,8.87179 c -17.73125,-1.04382 -27.929533,-2.99032 -35.43598,-6.76351 -4.557332,-2.29078 -7.181782,-4.93339 -8.353354,-8.41114 -0.512679,-1.52186 -0.562219,-2.13257 -0.471318,-5.8102 0.08634,-3.49328 0.191473,-4.33708 0.700999,-5.62644 3.094835,-7.83156 15.959143,-16.90408 33.770051,-23.81626 4.809201,-1.86638 6.217874,-2.98297 7.427837,-5.88772 0.539761,-1.2958 0.412891,-5.55711 -0.20903,-7.0208 -0.218601,-0.51446 -1.182083,-1.83148 -2.141095,-2.9267 -3.726599,-4.25593 -7.852758,-11.38672 -9.936573,-17.17229 -5.437122,-15.09582 -3.857358,-30.546714 4.08535,-39.956675 7.945117,-9.412823 22.258431,-12.780265 34.826481,-8.193505 9.05416,3.30435 15.45116,10.611581 17.94937,20.5034 2.15032,8.51427 1.34942,18.57696 -2.23198,28.04365 -2.51305,6.64268 -5.74625,12.0598 -10.56775,17.70592 -1.3296,1.557 -1.8698,3.51822 -1.8642,6.76804 0.004,2.06781 0.11119,2.73503 0.60693,3.76255 0.90154,1.86862 2.24841,2.93333 4.77521,3.77482 l 2.18068,0.72624 -9.36746,9.42808 c -7.67114,7.72081 -9.49339,9.69377 -10.06291,10.89521 -0.3825,0.80692 -2.27509,6.81957 -4.20575,13.36146 -3.36762,11.41086 -3.51087,11.99383 -3.52415,14.34174 l -0.0138,2.44739 -3.30729,-0.0477 c -1.819021,-0.0262 -3.902616,-0.0827 -4.630228,-0.12557 z m 68.967238,-50.18671 -9.61214,-9.61483 2.2048,-2.02081 2.20482,-2.02081 9.63808,9.63214 9.63808,9.63214 -2.06656,1.93701 c -1.13661,1.06536 -2.14045,1.96693 -2.23075,2.00349 -0.0903,0.0366 -4.48965,-4.26018 -9.77633,-9.54833 z m 7.10376,-7.18378 -9.12216,-9.12501 1.71524,-1.74333 c 2.76991,-2.81528 4.90114,-3.54164 7.69993,-2.62427 1.27626,0.41832 1.99444,1.03122 6.93657,5.91973 3.03211,2.9992 5.7678,5.92935 6.07931,6.51143 0.72292,1.35084 0.79943,4.60124 0.13702,5.82083 -0.56875,1.04716 -3.62073,4.36563 -4.01504,4.36563 -0.16979,0 -4.41369,-4.10626 -9.43087,-9.12501 z"
       id="path5605"
       inkscape:connector-curvature="0" />
  </g>
</svg>
