<?xml version="1.0" encoding="UTF-8" standalone="no"?>
<!-- Created with Inkscape (http://www.inkscape.org/) -->

<svg
   xmlns:dc="http://purl.org/dc/elements/1.1/"
   xmlns:cc="http://creativecommons.org/ns#"
   xmlns:rdf="http://www.w3.org/1999/02/22-rdf-syntax-ns#"
   xmlns:svg="http://www.w3.org/2000/svg"
   xmlns="http://www.w3.org/2000/svg"
   xmlns:sodipodi="http://sodipodi.sourceforge.net/DTD/sodipodi-0.dtd"
   xmlns:inkscape="http://www.inkscape.org/namespaces/inkscape"
   width="210mm"
   height="297mm"
   viewBox="0 0 210 297"
   version="1.1"
   id="svg5046"
   inkscape:version="0.92.0 r15299"
   sodipodi:docname="editarSVG.svg">
  <defs
     id="defs5040" />
  <sodipodi:namedview
     id="base"
     pagecolor="#ffffff"
     bordercolor="#666666"
     borderopacity="1.0"
     inkscape:pageopacity="0.0"
     inkscape:pageshadow="2"
     inkscape:zoom="0.7"
     inkscape:cx="329.44203"
     inkscape:cy="619.16771"
     inkscape:document-units="mm"
     inkscape:current-layer="layer1"
     showgrid="false"
     inkscape:window-width="1366"
     inkscape:window-height="705"
     inkscape:window-x="-4"
     inkscape:window-y="-4"
     inkscape:window-maximized="1" />
  <metadata
     id="metadata5043">
    <rdf:RDF>
      <cc:Work
         rdf:about="">
        <dc:format>image/svg+xml</dc:format>
        <dc:type
           rdf:resource="http://purl.org/dc/dcmitype/StillImage" />
        <dc:title></dc:title>
      </cc:Work>
    </rdf:RDF>
  </metadata>
  <g
     inkscape:label="Capa 1"
     inkscape:groupmode="layer"
     id="layer1">
    <g
       id="g5088"
       transform="translate(0.37797619,-16.630952)">
      <path
         inkscape:connector-curvature="0"
         id="path5059"
         d="m 47.564305,215.94253 c 0.0823,-0.27186 2.325684,-9.21718 4.985292,-19.8785 2.659607,-10.66131 4.950031,-19.81716 5.089832,-20.34632 l 0.254183,-0.96212 1.119407,1.03343 c 1.272213,1.1745 3.332342,2.25616 5.208789,2.73484 l 1.278367,0.32612 0.02476,2.65808 c 0.07126,7.65217 4.994837,14.05223 12.556203,16.32157 1.095117,0.32867 2.476567,0.48131 4.353092,0.48099 2.729256,-5.3e-4 2.749948,0.004 2.898223,0.68121 0.520855,2.37746 1.351622,4.17626 2.692405,5.82968 0.647141,0.79803 0.81704,1.17475 0.569339,1.26238 -0.194184,0.0687 -9.316585,2.35887 -20.272005,5.08927 -10.955421,2.7304 -20.141376,5.0317 -20.413235,5.11401 -0.385408,0.11669 -0.461327,0.0408 -0.344648,-0.34464 z m 47.991639,-15.91008 c -1.74946,-1.01445 -2.54152,-3.28551 -1.82089,-5.22101 0.15883,-0.42661 14.838276,-15.31692 33.886126,-34.37288 l 33.6059,-33.6202 3.01269,3.00415 3.01269,3.00414 -33.48987,33.50738 c -18.41943,18.42906 -33.814776,33.68015 -34.211866,33.89132 -1.04592,0.55621 -2.85343,0.46893 -3.99478,-0.1929 z M 80.42627,189.5142 c -5.364413,-1.48837 -7.899596,-7.2217 -5.404189,-12.2216 0.398839,-0.79913 10.771013,-11.35502 34.163949,-34.76908 18.47517,-18.49187 33.71415,-33.62158 33.86439,-33.62158 0.35454,0 11.89913,11.54993 11.89913,11.90464 0,0.14831 -15.18987,15.4386 -33.75526,33.97843 -36.685706,36.63518 -34.493285,34.61252 -37.899473,34.96493 -0.92164,0.0953 -1.992349,0.007 -2.868547,-0.23574 z M 65.381135,169.83584 c -0.514684,-0.3017 -1.168321,-0.86204 -1.452527,-1.24522 -0.695686,-0.93794 -0.87399,-3.21153 -0.33196,-4.23285 0.227384,-0.42845 15.491748,-15.84943 33.920806,-34.26886 l 33.507386,-33.489889 3.00415,3.0127 3.00415,3.012689 -33.62022,33.6059 c -19.05596,19.04785 -33.946262,33.72729 -34.372876,33.88612 -1.166363,0.43426 -2.631015,0.32194 -3.658909,-0.28059 z m 89.756925,-61.13724 -18.12623,-18.136889 4.08939,-4.003964 c 5.80895,-5.687611 8.32034,-6.916802 14.1157,-6.908891 2.66117,0.0036 3.36209,0.103862 5.21111,0.745171 3.79555,1.316434 4.80358,2.113603 12.8597,10.169724 8.06744,8.06744 8.88437,9.10162 10.1368,12.832539 1.45674,4.33956 1.12702,8.72488 -0.97678,12.99144 -0.99189,2.01158 -1.5826,2.7408 -5.15191,6.35993 l -4.03156,4.08783 z"
         style="fill:#000000;stroke-width:0.26736841" />
      <path
         transform="scale(0.26458333)"
         inkscape:connector-curvature="0"
         id="path5072"
         d="m 301.98486,714.84734 c -17.2195,-6.245 -26.20842,-27.41425 -18.17109,-42.79361 2.97578,-5.69413 171.95758,-177.08461 225.9267,-229.14708 l 31.38501,-30.27623 22.02497,22.05942 22.02497,22.05942 L 477.3381,564.74773 C 362.31588,679.9418 329.38767,711.7662 322.04664,714.83353 c -5.53029,2.31074 -13.71288,2.31637 -20.06178,0.0143 z"
         style="fill:#215891;fill-opacity:1;stroke:#e1bb1e;stroke-width:3.05061841;stroke-miterlimit:4;stroke-dasharray:none;stroke-opacity:1" />
      <path
         transform="scale(0.26458333)"
         inkscape:connector-curvature="0"
         id="path5074"
         d="m 358.67658,752.57847 c -3.31181,-3.3118 -4.17583,-5.4383 -4.17583,-10.27747 v -6.10164 l 53.92129,-54.36539 c 29.6567,-29.90096 86.86584,-87.47249 127.1314,-127.93674 l 73.21013,-73.57136 11.08288,11.14019 11.08287,11.14018 L 503.50695,629.68027 376.08457,756.7543 h -6.61609 c -5.40775,0 -7.37873,-0.76266 -10.7919,-4.17583 z"
         style="fill:#215891;fill-opacity:1;stroke:#e1bb1e;stroke-width:3.05061841;stroke-miterlimit:4;stroke-dasharray:none;stroke-opacity:1" />
      <path
         transform="scale(0.26458333)"
         inkscape:connector-curvature="0"
         id="path5076"
         d="m 587.11633,410.0515 -68.09871,-68.2972 16.07379,-15 c 19.64387,-18.33157 26.91982,-22.55649 41.70024,-24.21405 14.26317,-1.59955 25.61325,0.10815 37.43202,5.63192 8.4076,3.92948 13.27698,8.21241 40.30902,35.45433 32.09796,32.34717 34.96538,36.17969 39.18248,52.37023 2.79698,10.73833 2.80393,19.32156 0.0243,29.99334 -3.43597,13.1916 -8.85387,21.5828 -24.2387,37.54074 l -14.28571,14.81789 z"
         style="fill:#215891;fill-opacity:1;stroke:#e1bb1e;stroke-width:3.05061841;stroke-miterlimit:4;stroke-dasharray:none;stroke-opacity:1" />
      <path
         transform="scale(0.26458333)"
         inkscape:connector-curvature="0"
         id="path5078"
         d="m 249.3269,641.80977 c -6.04237,-2.58284 -9.11186,-7.4017 -9.11186,-14.3049 0,-5.7277 0.63927,-6.3958 127.51942,-133.27001 l 127.51942,-127.51345 10.67484,10.74657 10.67485,10.74657 -91.40856,91.50411 C 309.31997,595.71484 261.91749,641.79449 257.35789,642.87201 c -1.96428,0.46422 -5.57823,-0.0143 -8.03099,-1.06224 z"
         style="fill:#215891;fill-opacity:1;stroke:#e1bb1e;stroke-width:3.05061841;stroke-miterlimit:4;stroke-dasharray:none;stroke-opacity:1" />
      <path
         transform="scale(0.26458333)"
         inkscape:connector-curvature="0"
         id="path5080"
         d="m 180.77633,814.2543 c 0.41461,-1.375 8.48857,-33.35714 17.94212,-71.07143 9.45356,-37.71428 17.9051,-71.26685 18.78121,-74.56126 l 1.59292,-5.98983 6.97704,4.79935 c 3.83737,2.63965 10.10918,5.83969 13.93735,7.1112 l 6.96032,2.31185 0.7274,12.75755 c 0.61695,10.82041 1.51098,14.40755 5.88787,23.62403 9.90121,20.84912 29.7351,34.8788 50.8531,35.9714 16.18226,0.83723 16.90568,1.11927 18.55191,7.23291 0.79548,2.95422 3.65818,9.04444 6.36155,13.53382 l 4.9152,8.16252 -5.23893,1.37282 c -20.56073,5.3878 -147.10771,37.24507 -147.94897,37.24507 -0.57966,0 -0.71469,-1.125 -0.30009,-2.5 z"
         style="fill:#215891;fill-opacity:1;stroke:#e1bb1e;stroke-width:3.05061841;stroke-miterlimit:4;stroke-dasharray:none;stroke-opacity:1" />
    </g>
  </g>
</svg>
