<?xml version="1.0" encoding="UTF-8" standalone="no"?>
<!-- Created with Inkscape (http://www.inkscape.org/) -->

<svg
   xmlns:dc="http://purl.org/dc/elements/1.1/"
   xmlns:cc="http://creativecommons.org/ns#"
   xmlns:rdf="http://www.w3.org/1999/02/22-rdf-syntax-ns#"
   xmlns:svg="http://www.w3.org/2000/svg"
   xmlns="http://www.w3.org/2000/svg"
   xmlns:sodipodi="http://sodipodi.sourceforge.net/DTD/sodipodi-0.dtd"
   xmlns:inkscape="http://www.inkscape.org/namespaces/inkscape"
   width="210mm"
   height="297mm"
   viewBox="0 0 210 297"
   version="1.1"
   id="svg4641"
   inkscape:version="0.92.1 r15371"
   sodipodi:docname="FINAL.svg">
  <defs
     id="defs4635" />
  <sodipodi:namedview
     id="base"
     pagecolor="#ffffff"
     bordercolor="#666666"
     borderopacity="1.0"
     inkscape:pageopacity="0.0"
     inkscape:pageshadow="2"
     inkscape:zoom="0.49497475"
     inkscape:cx="155.02948"
     inkscape:cy="708.74579"
     inkscape:document-units="mm"
     inkscape:current-layer="layer1"
     showgrid="false"
     inkscape:window-width="1366"
     inkscape:window-height="705"
     inkscape:window-x="-4"
     inkscape:window-y="-4"
     inkscape:window-maximized="1" />
  <metadata
     id="metadata4638">
    <rdf:RDF>
      <cc:Work
         rdf:about="">
        <dc:format>image/svg+xml</dc:format>
        <dc:type
           rdf:resource="http://purl.org/dc/dcmitype/StillImage" />
        <dc:title />
      </cc:Work>
    </rdf:RDF>
  </metadata>
  <g
     inkscape:label="Capa 1"
     inkscape:groupmode="layer"
     id="layer1">
    <path
       sodipodi:nodetypes="csssccccsccscccsccccscc"
       inkscape:connector-curvature="0"
       id="path4635"
       d="m 140.65908,176.69708 c -4.50325,-0.91039 -9.88779,-3.50378 -13.44938,-6.47775 -4.9954,-4.17128 -8.37313,-10.67208 -8.37313,-16.11508 0,-2.29898 0.0486,-2.38776 2.39218,-4.3693 2.11168,-1.78545 2.5416,-1.98685 3.66633,-1.71749 0.87923,0.21055 1.82973,0.0906 3.06667,-0.38706 1.40739,-0.54344 2.0883,-0.60608 3.16897,-0.29151 1.29609,0.37728 1.48932,0.28935 3.31103,-1.50669 4.48675,-4.42352 4.72118,-4.58985 5.79367,-4.11058 1.55415,0.69452 3.07507,0.5252 4.79394,-0.53371 2.01349,-1.24044 3.02189,-1.22858 5.25166,0.0617 1.63854,0.94816 1.94468,0.99864 3.53309,0.58244 1.68892,-0.44252 1.78643,-0.4133 3.3779,1.01232 0.90132,0.8074 2.43263,2.25179 3.4029,3.20977 1.64934,1.62841 1.85069,1.71446 3.09475,1.32236 1.07865,-0.33996 1.71693,-0.27151 3.37061,0.36152 1.89543,0.72558 2.13146,0.73705 3.33142,0.16199 1.27718,-0.61204 1.31509,-0.59858 3.42541,1.2165 l 2.13398,1.83538 -0.18718,3.90561 c -0.14918,3.1118 -0.45221,4.46125 -1.49134,6.63951 -4.68651,9.82393 -15.07748,15.86566 -27.13844,15.77937 -2.05801,-0.0147 -4.97179,-0.2754 -6.47504,-0.57931 z"
       style="fill:#0083b3;fill-opacity:1;stroke:#f2cf3d;stroke-width:0.23265067;stroke-miterlimit:4;stroke-dasharray:none;stroke-opacity:1"
       inkscape:export-xdpi="42.473656"
       inkscape:export-ydpi="42.473656" />
    <path
       style="fill:#03aeea;fill-opacity:1;stroke:#f2cf3d;stroke-width:0.2682068;stroke-opacity:1"
       d="m 168.85384,166.321 c -0.12165,-0.67432 -0.0105,-1.36127 0.30725,-1.89963 0.27387,-0.46383 0.82953,-1.80162 1.23488,-2.97284 1.18668,-3.42881 2.34175,-4.27278 5.01112,-3.66144 2.37173,0.5432 4.46144,3.17944 4.12126,5.19913 -0.22504,1.33617 -1.19014,2.26404 -4.202,4.04005 -2.0476,1.2074 -2.9603,1.5913 -3.78412,1.59166 -1.42544,5.3e-4 -2.42853,-0.8564 -2.68843,-2.29693 z m 11.27737,-3.96796 c 0.12206,-1.06791 1.04748,-1.46936 2.41866,-1.0493 1.18184,0.36207 1.21762,0.46165 0.55474,1.54414 -1.01043,1.65004 -3.17736,1.28942 -2.9734,-0.49485 z m -7.93361,-6.66514 c -0.052,-0.36171 0.0293,-0.79796 0.18063,-0.96948 0.48509,-0.54944 1.98927,-1.40901 2.1771,-1.24394 0.0999,0.0877 0.26831,0.64023 0.37427,1.22767 0.14479,0.80263 0.0491,1.23199 -0.38493,1.72739 -0.86129,0.98316 -2.15803,0.57342 -2.34714,-0.74164 z m 7.05659,3.29269 c -0.29067,-0.72403 0.43203,-1.53909 1.68062,-1.89546 1.24719,-0.35595 1.58263,-0.0349 1.26187,1.20786 -0.32379,1.25519 -0.64737,1.6272 -1.47804,1.69946 -0.74563,0.065 -1.1425,-0.20916 -1.46472,-1.01186 z m -3.09122,-2.90302 c -0.0306,-0.32692 0.096,-0.76745 0.2813,-0.97896 0.46487,-0.53077 2.08527,-1.25574 2.32853,-1.04193 0.39848,0.35024 0.207,2.33415 -0.27884,2.88872 -0.77019,0.87913 -2.21801,0.34013 -2.33099,-0.86783 z"
       id="path4596-9"
       inkscape:connector-curvature="0"
       sodipodi:nodetypes="cccccccccsccccccsccsccccsscss" />
    <flowRoot
       style="font-style:normal;font-weight:normal;font-size:40px;line-height:1.25;font-family:sans-serif;letter-spacing:0px;word-spacing:0px;fill:#f2cf3d;fill-opacity:1;stroke:#215891;stroke-width:0.42364749;stroke-miterlimit:4;stroke-dasharray:none;stroke-opacity:1"
       id="flowRoot4485-7-2-8-3-7"
       xml:space="preserve"
       transform="matrix(0.51053624,0,0,0.43654012,28.042575,-106.83464)"
       inkscape:export-xdpi="42.473656"
       inkscape:export-ydpi="42.473656"><flowRegion
         style="fill:#f2cf3d;fill-opacity:1;stroke:#215891;stroke-width:0.42364749;stroke-miterlimit:4;stroke-dasharray:none;stroke-opacity:1"
         id="flowRegion4487-5-4-7-3-6"><rect
           style="fill:#f2cf3d;fill-opacity:1;stroke:#215891;stroke-width:0.42364749;stroke-miterlimit:4;stroke-dasharray:none;stroke-opacity:1"
           y="368.23398"
           x="177.14285"
           height="180"
           width="468.57144"
           id="rect4489-3-2-2-4-2" /></flowRegion><flowPara
         style="font-style:normal;font-variant:normal;font-weight:normal;font-stretch:normal;font-size:96px;font-family:'aliens and cows';-inkscape-font-specification:'aliens and cows, Normal';font-variant-ligatures:normal;font-variant-caps:normal;font-variant-numeric:normal;font-feature-settings:normal;text-align:start;writing-mode:lr-tb;text-anchor:start;fill:#f2cf3d;fill-opacity:1;stroke:#215891;stroke-width:0.42364749;stroke-miterlimit:4;stroke-dasharray:none;stroke-opacity:1"
         id="flowPara4491-1-7-1-5-3">Gety</flowPara></flowRoot>    <path
       id="path4560"
       d="m 169.38301,166.85017 c 0,0.21168 -0.10584,0.40216 -0.27517,0.55032 -0.16933,0.14818 -0.35983,0.21168 -0.61383,0.21168 h -1.52399 c -0.23283,0 -0.44449,-0.0635 -0.63499,-0.21168 -0.16933,-0.14816 -0.254,-0.33864 -0.254,-0.55032 v -9.18627 l -2.49765,-14.32973 c -0.0212,-0.127 0,-0.23283 0.10583,-0.3175 0.10584,-0.0847 0.23284,-0.127 0.40217,-0.127 h 1.35465 c 0.48684,0 0.8255,0.10584 1.03716,0.35983 0.23284,0.21167 0.35983,0.508 0.40217,0.86783 l 0.84666,8.88994 0.88899,-8.88994 c 0.0212,-0.35983 0.14817,-0.65616 0.35983,-0.86783 0.23283,-0.25399 0.59267,-0.35983 1.05833,-0.35983 h 1.37582 c 0.14817,0 0.29633,0.0423 0.381,0.127 0.10583,0.0847 0.127,0.1905 0.10583,0.3175 l -2.51881,14.32973 z"
       style="fill:#f2cf3d;fill-opacity:1;fill-rule:nonzero;stroke:#215891;stroke-width:0.2;stroke-linecap:butt;stroke-linejoin:miter;stroke-miterlimit:4;stroke-dasharray:none;stroke-opacity:0.95294118"
       inkscape:connector-curvature="0"
       inkscape:export-xdpi="59.091099"
       inkscape:export-ydpi="59.091099" />
    <path
       id="path4554"
       d="m 133.06021,153.5467 c 0.14816,0 0.27516,0.0423 0.35983,0.12699 0.0847,0.0847 0.127,0.1905 0.127,0.3175 v 9.96942 c 0,1.12184 -0.42333,2.01083 -1.24883,2.64583 -0.82549,0.65616 -1.96848,0.97366 -3.47131,0.97366 -0.71966,0 -1.35465,-0.0847 -1.92615,-0.254 -0.57149,-0.16933 -1.07949,-0.40216 -1.50282,-0.71966 -0.40216,-0.3175 -0.71966,-0.6985 -0.95249,-1.12183 -0.21167,-0.4445 -0.3175,-0.9525 -0.3175,-1.524 v -22.79632 c 0,-1.10066 0.40216,-1.98965 1.22766,-2.62465 0.82549,-0.65616 1.98965,-0.97366 3.4713,-0.97366 0.71967,0 1.35466,0.0847 1.92616,0.254 0.59266,0.16933 1.07949,0.42333 1.48165,0.74083 0.42333,0.29633 0.74083,0.67732 0.97366,1.12182 0.21167,0.4445 0.33867,0.93133 0.33867,1.48166 v 10.26575 c 0,0.10584 -0.0423,0.21167 -0.127,0.29634 -0.0847,0.0847 -0.21167,0.12699 -0.35983,0.12699 h -1.37583 c -0.48683,0 -0.84666,-0.10583 -1.07949,-0.33866 -0.23283,-0.23283 -0.33866,-0.52916 -0.33866,-0.88899 v -9.46143 c 0,-0.35983 -0.127,-0.67733 -0.35983,-0.889 -0.21167,-0.23283 -0.5715,-0.35983 -1.0795,-0.35983 -0.46566,0 -0.82549,0.127 -1.07949,0.35983 -0.21166,0.21167 -0.33866,0.52917 -0.33866,0.889 v 22.79632 c 0,0.381 0.127,0.6985 0.33866,0.93134 0.23283,0.23283 0.59266,0.33866 1.07949,0.33866 0.48683,0 0.8255,-0.10583 1.05833,-0.33866 0.254,-0.23284 0.381,-0.55034 0.381,-0.93134 v -7.59877 c -0.4445,0 -0.80433,-0.0847 -1.0795,-0.29633 -0.27516,-0.21166 -0.40216,-0.50799 -0.40216,-0.91016 v -1.18532 c 0,-0.127 0.0423,-0.23284 0.14817,-0.3175 0.10583,-0.0635 0.21166,-0.10583 0.35983,-0.10583 z"
       style="fill:#f2cf3d;fill-opacity:1;fill-rule:nonzero;stroke:#215891;stroke-width:0.2;stroke-linecap:butt;stroke-linejoin:miter;stroke-miterlimit:4;stroke-dasharray:none;stroke-opacity:0.95294118"
       inkscape:connector-curvature="0"
       inkscape:export-xdpi="59.091099"
       inkscape:export-ydpi="59.091099" />
    <path
       id="path4556"
       d="m 145.16193,142.87297 c 0.127,0 0.254,0.0212 0.35983,0.10584 0.10583,0.0635 0.14817,0.16933 0.14817,0.31749 v 0.6985 c 0,0.35983 -0.127,0.65616 -0.33867,0.88899 -0.23283,0.21167 -0.52916,0.33867 -0.91016,0.33867 h -3.02681 v 8.9746 h 3.25964 c 0.14817,0 0.27517,0.0423 0.381,0.10583 0.0847,0.0847 0.14817,0.1905 0.14817,0.3175 v 0.71966 c 0,0.35983 -0.127,0.65616 -0.35983,0.86783 -0.21167,0.23283 -0.52917,0.33866 -0.889,0.33866 h -2.53998 v 8.69944 h 3.02681 c 0.381,0 0.67733,0.10582 0.91016,0.33867 0.21167,0.21165 0.33867,0.508 0.33867,0.86782 v 0.71965 c 0,0.14818 -0.0423,0.254 -0.14817,0.3175 -0.10583,0.0635 -0.23283,0.10585 -0.35983,0.10585 h -6.56162 c -0.14816,0 -0.27516,-0.0423 -0.35983,-0.127 -0.0847,-0.0847 -0.127,-0.1905 -0.127,-0.3175 v -23.8335 c 0,-0.127 0.0423,-0.23283 0.127,-0.3175 0.0847,-0.0847 0.21167,-0.127 0.35983,-0.127 z"
       style="fill:#f2cf3d;fill-opacity:1;fill-rule:nonzero;stroke:#215891;stroke-width:0.2;stroke-linecap:butt;stroke-linejoin:miter;stroke-miterlimit:4;stroke-dasharray:none;stroke-opacity:0.95294118"
       inkscape:connector-curvature="0"
       inkscape:export-xdpi="59.091099"
       inkscape:export-ydpi="59.091099" />
    <path
       id="path4558"
       d="m 158.54585,142.88967 c 0.14817,0 0.27517,0.0212 0.381,0.10584 0.0847,0.0635 0.14817,0.16933 0.14817,0.31749 v 0.6985 c 0,0.35983 -0.127,0.65616 -0.35983,0.88899 -0.21167,0.21167 -0.52917,0.33867 -0.889,0.33867 h -1.52399 v 21.61101 c 0,0.21168 -0.0847,0.40216 -0.27516,0.55032 -0.16933,0.14818 -0.35983,0.21168 -0.61383,0.21168 h -1.52399 c -0.23283,0 -0.4445,-0.0635 -0.63499,-0.21168 -0.14817,-0.14816 -0.23283,-0.33864 -0.23283,-0.55032 v -21.61101 h -1.52399 c -0.381,0 -0.67733,-0.127 -0.91016,-0.33867 -0.23284,-0.23283 -0.33867,-0.52916 -0.33867,-0.88899 v -0.6985 c 0,-0.14816 0.0423,-0.25399 0.14817,-0.31749 0.0847,-0.0847 0.21166,-0.10584 0.35983,-0.10584 z"
       style="fill:#f2cf3d;fill-opacity:1;fill-rule:nonzero;stroke:#215891;stroke-width:0.2;stroke-linecap:butt;stroke-linejoin:miter;stroke-miterlimit:4;stroke-dasharray:none;stroke-opacity:0.95294118"
       inkscape:connector-curvature="0"
       inkscape:export-xdpi="59.091099"
       inkscape:export-ydpi="59.091099" />
    <path
       id="path4560-7"
       d="m 170.23427,134.0614 c 0,0.21168 -0.10584,0.40216 -0.27517,0.55032 -0.16933,0.14818 -0.35983,0.21168 -0.61383,0.21168 h -1.52399 c -0.23283,0 -0.44449,-0.0635 -0.63499,-0.21168 -0.16933,-0.14816 -0.254,-0.33864 -0.254,-0.55032 v -9.18627 l -2.49765,-14.32973 c -0.0212,-0.127 0,-0.23283 0.10583,-0.3175 0.10584,-0.0847 0.23284,-0.127 0.40217,-0.127 h 1.35465 c 0.48684,0 0.8255,0.10584 1.03716,0.35983 0.23284,0.21167 0.35983,0.508 0.40217,0.86783 l 0.84666,8.88994 0.88899,-8.88994 c 0.0212,-0.35983 0.14817,-0.65616 0.35983,-0.86783 0.23283,-0.25399 0.59267,-0.35983 1.05833,-0.35983 h 1.37582 c 0.14817,0 0.29633,0.0423 0.381,0.127 0.10583,0.0847 0.127,0.1905 0.10583,0.3175 l -2.51881,14.32973 z"
       style="fill:#f2cf3d;fill-opacity:1;fill-rule:nonzero;stroke:#215891;stroke-width:0.2;stroke-linecap:butt;stroke-linejoin:miter;stroke-miterlimit:4;stroke-dasharray:none;stroke-opacity:0.95294118"
       inkscape:connector-curvature="0"
       inkscape:export-xdpi="59.091099"
       inkscape:export-ydpi="59.091099" />
    <path
       id="path4554-4"
       d="m 133.91147,120.75793 c 0.14816,0 0.27516,0.0423 0.35983,0.12699 0.0847,0.0847 0.127,0.1905 0.127,0.3175 v 9.96942 c 0,1.12184 -0.42333,2.01083 -1.24883,2.64583 -0.82549,0.65616 -1.96848,0.97366 -3.47131,0.97366 -0.71966,0 -1.35465,-0.0847 -1.92615,-0.254 -0.57149,-0.16933 -1.07949,-0.40216 -1.50282,-0.71966 -0.40216,-0.3175 -0.71966,-0.6985 -0.95249,-1.12183 -0.21167,-0.4445 -0.3175,-0.9525 -0.3175,-1.524 v -22.79632 c 0,-1.10066 0.40216,-1.98965 1.22766,-2.62465 0.82549,-0.65616 1.98965,-0.97366 3.4713,-0.97366 0.71967,0 1.35466,0.0847 1.92616,0.254 0.59266,0.16933 1.07949,0.42333 1.48165,0.74083 0.42333,0.29633 0.74083,0.67732 0.97366,1.12182 0.21167,0.4445 0.33867,0.93133 0.33867,1.48166 v 10.26575 c 0,0.10584 -0.0423,0.21167 -0.127,0.29634 -0.0847,0.0847 -0.21167,0.12699 -0.35983,0.12699 h -1.37583 c -0.48683,0 -0.84666,-0.10583 -1.07949,-0.33866 -0.23283,-0.23283 -0.33866,-0.52916 -0.33866,-0.88899 v -9.46143 c 0,-0.35983 -0.127,-0.67733 -0.35983,-0.889 -0.21167,-0.23283 -0.5715,-0.35983 -1.0795,-0.35983 -0.46566,0 -0.82549,0.127 -1.07949,0.35983 -0.21166,0.21167 -0.33866,0.52917 -0.33866,0.889 v 22.79632 c 0,0.381 0.127,0.6985 0.33866,0.93134 0.23283,0.23283 0.59266,0.33866 1.07949,0.33866 0.48683,0 0.8255,-0.10583 1.05833,-0.33866 0.254,-0.23284 0.381,-0.55034 0.381,-0.93134 v -7.59877 c -0.4445,0 -0.80433,-0.0847 -1.0795,-0.29633 -0.27516,-0.21166 -0.40216,-0.50799 -0.40216,-0.91016 v -1.18532 c 0,-0.127 0.0423,-0.23284 0.14817,-0.3175 0.10583,-0.0635 0.21166,-0.10583 0.35983,-0.10583 z"
       style="fill:#f2cf3d;fill-opacity:1;fill-rule:nonzero;stroke:#215891;stroke-width:0.2;stroke-linecap:butt;stroke-linejoin:miter;stroke-miterlimit:4;stroke-dasharray:none;stroke-opacity:0.95294118"
       inkscape:connector-curvature="0"
       inkscape:export-xdpi="59.091099"
       inkscape:export-ydpi="59.091099" />
    <path
       id="path4556-8"
       d="m 146.01319,110.0842 c 0.127,0 0.254,0.0212 0.35983,0.10584 0.10583,0.0635 0.14817,0.16933 0.14817,0.31749 v 0.6985 c 0,0.35983 -0.127,0.65616 -0.33867,0.88899 -0.23283,0.21167 -0.52916,0.33867 -0.91016,0.33867 h -3.02681 v 8.9746 h 3.25964 c 0.14817,0 0.27517,0.0423 0.381,0.10583 0.0847,0.0847 0.14817,0.1905 0.14817,0.3175 v 0.71966 c 0,0.35983 -0.127,0.65616 -0.35983,0.86783 -0.21167,0.23283 -0.52917,0.33866 -0.889,0.33866 h -2.53998 v 8.69944 h 3.02681 c 0.381,0 0.67733,0.10582 0.91016,0.33867 0.21167,0.21165 0.33867,0.508 0.33867,0.86782 v 0.71965 c 0,0.14818 -0.0423,0.254 -0.14817,0.3175 -0.10583,0.0635 -0.23283,0.10585 -0.35983,0.10585 h -6.56162 c -0.14816,0 -0.27516,-0.0423 -0.35983,-0.127 -0.0847,-0.0847 -0.127,-0.1905 -0.127,-0.3175 v -23.8335 c 0,-0.127 0.0423,-0.23283 0.127,-0.3175 0.0847,-0.0847 0.21167,-0.127 0.35983,-0.127 z"
       style="fill:#f2cf3d;fill-opacity:1;fill-rule:nonzero;stroke:#215891;stroke-width:0.2;stroke-linecap:butt;stroke-linejoin:miter;stroke-miterlimit:4;stroke-dasharray:none;stroke-opacity:0.95294118"
       inkscape:connector-curvature="0"
       inkscape:export-xdpi="59.091099"
       inkscape:export-ydpi="59.091099" />
    <path
       id="path4558-3"
       d="m 159.39711,110.1009 c 0.14817,0 0.27517,0.0212 0.381,0.10584 0.0847,0.0635 0.14817,0.16933 0.14817,0.31749 v 0.6985 c 0,0.35983 -0.127,0.65616 -0.35983,0.88899 -0.21167,0.21167 -0.52917,0.33867 -0.889,0.33867 h -1.52399 v 21.61101 c 0,0.21168 -0.0847,0.40216 -0.27516,0.55032 -0.16933,0.14818 -0.35983,0.21168 -0.61383,0.21168 h -1.52399 c -0.23283,0 -0.4445,-0.0635 -0.63499,-0.21168 -0.14817,-0.14816 -0.23283,-0.33864 -0.23283,-0.55032 v -21.61101 h -1.52399 c -0.381,0 -0.67733,-0.127 -0.91016,-0.33867 -0.23284,-0.23283 -0.33867,-0.52916 -0.33867,-0.88899 v -0.6985 c 0,-0.14816 0.0423,-0.25399 0.14817,-0.31749 0.0847,-0.0847 0.21166,-0.10584 0.35983,-0.10584 z"
       style="fill:#f2cf3d;fill-opacity:1;fill-rule:nonzero;stroke:#215891;stroke-width:0.2;stroke-linecap:butt;stroke-linejoin:miter;stroke-miterlimit:4;stroke-dasharray:none;stroke-opacity:0.95294118"
       inkscape:connector-curvature="0"
       inkscape:export-xdpi="59.091099"
       inkscape:export-ydpi="59.091099" />
  </g>
</svg>
