<?xml version="1.0" encoding="UTF-8" standalone="no"?>
<!-- Created with Inkscape (http://www.inkscape.org/) -->

<svg
   xmlns:dc="http://purl.org/dc/elements/1.1/"
   xmlns:cc="http://creativecommons.org/ns#"
   xmlns:rdf="http://www.w3.org/1999/02/22-rdf-syntax-ns#"
   xmlns:svg="http://www.w3.org/2000/svg"
   xmlns="http://www.w3.org/2000/svg"
   xmlns:sodipodi="http://sodipodi.sourceforge.net/DTD/sodipodi-0.dtd"
   xmlns:inkscape="http://www.inkscape.org/namespaces/inkscape"
   width="210mm"
   height="297mm"
   viewBox="0 0 210 297"
   version="1.1"
   id="svg8"
   inkscape:version="0.92.1 r15371"
   sodipodi:docname="2 FINAL FONDO AZUL.svg">
  <defs
     id="defs2" />
  <sodipodi:namedview
     id="base"
     pagecolor="#ffffff"
     bordercolor="#666666"
     borderopacity="1.0"
     inkscape:pageopacity="0.0"
     inkscape:pageshadow="2"
     inkscape:zoom="1.4"
     inkscape:cx="577.7857"
     inkscape:cy="695.72242"
     inkscape:document-units="mm"
     inkscape:current-layer="layer1"
     showgrid="false"
     showguides="true"
     inkscape:guide-bbox="true"
     inkscape:window-width="1366"
     inkscape:window-height="705"
     inkscape:window-x="-4"
     inkscape:window-y="-4"
     inkscape:window-maximized="1">
    <sodipodi:guide
       position="135.22098,166.30953"
       orientation="1,0"
       id="guide4525"
       inkscape:locked="false" />
    <sodipodi:guide
       position="130.87425,154.59227"
       orientation="1,0"
       id="guide4527"
       inkscape:locked="false" />
    <sodipodi:guide
       position="157.82868,156.55301"
       orientation="0,1"
       id="guide4529"
       inkscape:locked="false" />
    <sodipodi:guide
       position="143.06398,156.55301"
       orientation="1,0"
       id="guide4543"
       inkscape:locked="false" />
    <sodipodi:guide
       position="167.54681,181.46991"
       orientation="0,1"
       id="guide4545"
       inkscape:locked="false" />
  </sodipodi:namedview>
  <metadata
     id="metadata5">
    <rdf:RDF>
      <cc:Work
         rdf:about="">
        <dc:format>image/svg+xml</dc:format>
        <dc:type
           rdf:resource="http://purl.org/dc/dcmitype/StillImage" />
        <dc:title></dc:title>
      </cc:Work>
    </rdf:RDF>
  </metadata>
  <g
     inkscape:label="Capa 1"
     inkscape:groupmode="layer"
     id="layer1">
    <path
       sodipodi:nodetypes="cccccccccsccccccsccsccccsscss"
       inkscape:connector-curvature="0"
       id="path4596-5"
       d="m 105.08027,138.33028 c -0.70596,-0.56621 -1.16851,-1.35986 -1.27919,-2.19456 -0.0952,-0.71926 -0.62571,-2.57766 -1.17869,-4.12987 -1.61886,-4.54415 -1.07519,-6.4586 2.35865,-8.30558 3.05097,-1.64102 7.57308,-0.91616 8.91838,1.42957 0.89002,1.55184 0.62507,3.37549 -1.1535,7.9402 -1.20916,3.1033 -1.87927,4.33136 -2.77836,5.09155 -1.55563,1.31537 -3.37918,1.37829 -4.88732,0.16872 z m 8.93912,-14.3935 c -0.77443,-1.187 -0.10535,-2.44441 1.74863,-3.28648 1.598,-0.72578 1.72169,-0.65858 1.91811,1.04185 0.29938,2.59203 -2.37283,4.22784 -3.66676,2.24462 z m -14.326477,0.61175 c -0.364207,-0.31596 -0.64624,-0.82985 -0.626835,-1.14198 0.06259,-1.0002 0.974122,-3.25233 1.319492,-3.2595 0.1836,-0.004 0.83708,0.39665 1.45207,0.88994 0.84029,0.67395 1.10077,1.19416 1.04799,2.09292 -0.10463,1.78351 -1.86859,2.56731 -3.192787,1.41867 z m 10.502527,-3.1958 c -0.93273,-0.46033 -0.83651,-1.94692 0.22371,-3.45707 1.05903,-1.50843 1.69815,-1.49475 2.40425,0.0514 0.71337,1.56146 0.67632,2.23416 -0.16912,3.07301 -0.75873,0.75318 -1.42508,0.84333 -2.45914,0.33295 z m -5.84224,-0.0695 c -0.31125,-0.3007 -0.5475,-0.86065 -0.52498,-1.24436 0.0564,-0.96276 1.2092,-3.18667 1.6565,-3.19592 0.73273,-0.0152 2.20994,2.15741 2.15091,3.16345 -0.0936,1.59484 -2.13234,2.38792 -3.28243,1.27683 z"
       style="fill:#03aeea;fill-opacity:1;stroke:#f2cf3d;stroke-width:0.36797237;stroke-opacity:1"
       inkscape:export-xdpi="36.110001"
       inkscape:export-ydpi="36.110001"
       inkscape:export-filename="C:\Users\Alber\favicon.ico.png" />
    <path
       id="path4560"
       d="m 166.59007,139.59002 c 0,0.21168 -0.10584,0.40216 -0.27517,0.55033 -0.16933,0.14817 -0.35983,0.21167 -0.61383,0.21167 h -1.52399 c -0.23283,0 -0.44449,-0.0635 -0.63499,-0.21167 -0.16933,-0.14817 -0.254,-0.33865 -0.254,-0.55033 v -9.18627 l -2.49765,-14.32973 c -0.0212,-0.127 0,-0.23283 0.10583,-0.3175 0.10584,-0.0847 0.23284,-0.127 0.40217,-0.127 h 1.35465 c 0.48684,0 0.8255,0.10584 1.03716,0.35983 0.23284,0.21167 0.35983,0.508 0.40217,0.86783 l 0.84666,8.88994 0.88899,-8.88994 c 0.0212,-0.35983 0.14817,-0.65616 0.35983,-0.86783 0.23283,-0.25399 0.59267,-0.35983 1.05833,-0.35983 h 1.37582 c 0.14817,0 0.29633,0.0423 0.381,0.127 0.10583,0.0847 0.127,0.1905 0.10583,0.3175 l -2.51881,14.32973 z"
       style="fill:#215891;fill-opacity:0.95294118;fill-rule:nonzero;stroke:#f2cf3d;stroke-width:0.2;stroke-linecap:butt;stroke-linejoin:miter;stroke-miterlimit:4;stroke-dasharray:none;stroke-opacity:1"
       inkscape:connector-curvature="0"
       inkscape:export-xdpi="36.110001"
       inkscape:export-ydpi="36.110001" />
    <path
       id="path4554"
       d="m 130.26727,126.28655 c 0.14816,0 0.27516,0.0423 0.35983,0.12699 0.0847,0.0847 0.127,0.1905 0.127,0.3175 v 9.96943 c 0,1.12183 -0.42333,2.01082 -1.24883,2.64582 -0.82549,0.65616 -1.96848,0.97366 -3.47131,0.97366 -0.71966,0 -1.35465,-0.0847 -1.92615,-0.254 -0.57149,-0.16933 -1.07949,-0.40216 -1.50282,-0.71966 -0.40216,-0.3175 -0.71966,-0.6985 -0.95249,-1.12182 -0.21167,-0.4445 -0.3175,-0.9525 -0.3175,-1.524 v -22.79633 c 0,-1.10066 0.40216,-1.98965 1.22766,-2.62465 0.82549,-0.65616 1.98965,-0.97366 3.4713,-0.97366 0.71967,0 1.35466,0.0847 1.92616,0.254 0.59266,0.16933 1.07949,0.42333 1.48165,0.74083 0.42333,0.29633 0.74083,0.67732 0.97366,1.12182 0.21167,0.4445 0.33867,0.93133 0.33867,1.48166 v 10.26575 c 0,0.10584 -0.0423,0.21167 -0.127,0.29634 -0.0847,0.0847 -0.21167,0.12699 -0.35983,0.12699 h -1.37583 c -0.48683,0 -0.84666,-0.10583 -1.07949,-0.33866 -0.23283,-0.23283 -0.33866,-0.52916 -0.33866,-0.88899 v -9.46143 c 0,-0.35983 -0.127,-0.67733 -0.35983,-0.889 -0.21167,-0.23283 -0.5715,-0.35983 -1.0795,-0.35983 -0.46566,0 -0.82549,0.127 -1.07949,0.35983 -0.21166,0.21167 -0.33866,0.52917 -0.33866,0.889 v 22.79633 c 0,0.381 0.127,0.6985 0.33866,0.93133 0.23283,0.23283 0.59266,0.33867 1.07949,0.33867 0.48683,0 0.8255,-0.10584 1.05833,-0.33867 0.254,-0.23283 0.381,-0.55033 0.381,-0.93133 v -7.59878 c -0.4445,0 -0.80433,-0.0847 -1.0795,-0.29633 -0.27516,-0.21166 -0.40216,-0.50799 -0.40216,-0.91016 v -1.18532 c 0,-0.127 0.0423,-0.23284 0.14817,-0.3175 0.10583,-0.0635 0.21166,-0.10583 0.35983,-0.10583 z"
       style="fill:#215891;fill-opacity:0.95294118;fill-rule:nonzero;stroke:#f2cf3d;stroke-width:0.2;stroke-linecap:butt;stroke-linejoin:miter;stroke-miterlimit:4;stroke-dasharray:none;stroke-opacity:1"
       inkscape:connector-curvature="0"
       inkscape:export-xdpi="36.110001"
       inkscape:export-ydpi="36.110001" />
    <path
       id="path4556"
       d="m 142.36899,115.61282 c 0.127,0 0.254,0.0212 0.35983,0.10584 0.10583,0.0635 0.14817,0.16933 0.14817,0.31749 v 0.6985 c 0,0.35983 -0.127,0.65616 -0.33867,0.88899 -0.23283,0.21167 -0.52916,0.33867 -0.91016,0.33867 h -3.02681 v 8.9746 h 3.25964 c 0.14817,0 0.27517,0.0423 0.381,0.10583 0.0847,0.0847 0.14817,0.1905 0.14817,0.3175 v 0.71966 c 0,0.35983 -0.127,0.65616 -0.35983,0.86783 -0.21167,0.23283 -0.52917,0.33866 -0.889,0.33866 h -2.53998 v 8.69944 h 3.02681 c 0.381,0 0.67733,0.10583 0.91016,0.33867 0.21167,0.21166 0.33867,0.508 0.33867,0.86782 v 0.71966 c 0,0.14817 -0.0423,0.254 -0.14817,0.3175 -0.10583,0.0635 -0.23283,0.10584 -0.35983,0.10584 h -6.56162 c -0.14816,0 -0.27516,-0.0423 -0.35983,-0.127 -0.0847,-0.0847 -0.127,-0.1905 -0.127,-0.3175 v -23.8335 c 0,-0.127 0.0423,-0.23283 0.127,-0.3175 0.0847,-0.0847 0.21167,-0.127 0.35983,-0.127 z"
       style="fill:#215891;fill-opacity:0.95294118;fill-rule:nonzero;stroke:#f2cf3d;stroke-width:0.2;stroke-linecap:butt;stroke-linejoin:miter;stroke-miterlimit:4;stroke-dasharray:none;stroke-opacity:1"
       inkscape:connector-curvature="0"
       inkscape:export-xdpi="36.110001"
       inkscape:export-ydpi="36.110001" />
    <path
       id="path4558"
       d="m 155.75291,115.62952 c 0.14817,0 0.27517,0.0212 0.381,0.10584 0.0847,0.0635 0.14817,0.16933 0.14817,0.31749 v 0.6985 c 0,0.35983 -0.127,0.65616 -0.35983,0.88899 -0.21167,0.21167 -0.52917,0.33867 -0.889,0.33867 h -1.52399 v 21.61101 c 0,0.21168 -0.0847,0.40216 -0.27516,0.55033 -0.16933,0.14817 -0.35983,0.21167 -0.61383,0.21167 h -1.52399 c -0.23283,0 -0.4445,-0.0635 -0.63499,-0.21167 -0.14817,-0.14817 -0.23283,-0.33865 -0.23283,-0.55033 v -21.61101 h -1.52399 c -0.381,0 -0.67733,-0.127 -0.91016,-0.33867 -0.23284,-0.23283 -0.33867,-0.52916 -0.33867,-0.88899 v -0.6985 c 0,-0.14816 0.0423,-0.25399 0.14817,-0.31749 0.0847,-0.0847 0.21166,-0.10584 0.35983,-0.10584 z"
       style="fill:#215891;fill-opacity:0.95294118;fill-rule:nonzero;stroke:#f2cf3d;stroke-width:0.2;stroke-linecap:butt;stroke-linejoin:miter;stroke-miterlimit:4;stroke-dasharray:none;stroke-opacity:1"
       inkscape:connector-curvature="0"
       inkscape:export-xdpi="36.110001"
       inkscape:export-ydpi="36.110001" />
  </g>
</svg>
